<svg xmlns="http://www.w3.org/2000/svg" version="1.1" xmlns:xlink="http://www.w3.org/1999/xlink" viewBox="0 0 200 200"><rect width="200" height="200" fill="url('#gradient')"></rect><defs><linearGradient id="gradient" gradientTransform="rotate(360 0.5 0.5)"><stop offset="0%" stop-color="#445272"></stop><stop offset="100%" stop-color="#c8512e"></stop></linearGradient></defs><g><g fill="#ffffff" transform="matrix(1.9826622662266227,0,0,1.9826622662266227,9.87410391149217,114.87976276441769)" stroke="#c8512e" stroke-width="0.35"><path d="M6.69-4.82L4.50-4.82L4.50 0L1.07 0L1.07-14.22L6.75-14.22Q8.38-14.22 9.63-13.62Q10.89-13.02 11.58-11.91Q12.27-10.80 12.27-9.39L12.27-9.39Q12.27-7.31 10.78-6.07Q9.29-4.82 6.69-4.82L6.69-4.82ZM4.50-11.57L4.50-7.47L6.75-7.47Q7.74-7.47 8.27-7.97Q8.79-8.47 8.79-9.38L8.79-9.38Q8.79-10.37 8.25-10.97Q7.71-11.56 6.79-11.57L6.79-11.57L4.50-11.57ZM17.41-15L17.41 0L14.11 0L14.11-15L17.41-15ZM28.68 0L25.39 0Q25.21-0.32 25.08-0.95L25.08-0.95Q24.17 0.20 22.54 0.20L22.54 0.20Q21.04 0.20 20-0.71Q18.96-1.61 18.96-2.98L18.96-2.98Q18.96-4.70 20.22-5.58Q21.49-6.46 23.92-6.46L23.92-6.46L24.93-6.46L24.93-7.01Q24.93-8.47 23.67-8.47L23.67-8.47Q22.50-8.47 22.50-7.31L22.50-7.31L19.21-7.31Q19.21-8.85 20.51-9.80Q21.82-10.76 23.84-10.76Q25.86-10.76 27.03-9.78Q28.20-8.79 28.23-7.07L28.23-7.07L28.23-2.39Q28.25-0.94 28.68-0.17L28.68-0.17L28.68 0ZM23.33-2.15L23.33-2.15Q23.95-2.15 24.35-2.41Q24.76-2.68 24.93-3.01L24.93-3.01L24.93-4.70L23.97-4.70Q22.26-4.70 22.26-3.15L22.26-3.15Q22.26-2.71 22.56-2.43Q22.86-2.15 23.33-2.15ZM29.99-10.57L33.08-10.57L33.18-9.33Q34.28-10.76 36.20-10.76L36.20-10.76Q37.85-10.76 38.67-9.78Q39.48-8.79 39.51-6.81L39.51-6.81L39.51 0L36.21 0L36.21-6.67Q36.21-7.47 35.89-7.85Q35.57-8.22 34.72-8.22L34.72-8.22Q33.75-8.22 33.28-7.46L33.28-7.46L33.28 0L29.99 0L29.99-10.57ZM44.80-10.57L44.80 0L41.50 0L41.50-10.57L44.80-10.57ZM41.31-13.29L41.31-13.29Q41.31-13.99 41.82-14.44Q42.32-14.89 43.13-14.89Q43.95-14.89 44.45-14.44Q44.96-13.99 44.96-13.29Q44.96-12.59 44.45-12.14Q43.95-11.69 43.13-11.69Q42.32-11.69 41.82-12.14Q41.31-12.59 41.31-13.29ZM50.86 0L47.56 0L47.56-8.28L46.03-8.28L46.03-10.57L47.56-10.57L47.56-11.41Q47.56-13.21 48.62-14.21Q49.69-15.21 51.61-15.21L51.61-15.21Q52.31-15.21 53.15-15L53.15-15L53.16-12.58Q52.86-12.67 52.35-12.67L52.35-12.67Q50.86-12.67 50.86-11.38L50.86-11.38L50.86-10.57L52.92-10.57L52.92-8.28L50.86-8.28L50.86 0ZM57.55-10.57L57.55 0L54.25 0L54.25-10.57L57.55-10.57ZM54.05-13.29L54.05-13.29Q54.05-13.99 54.56-14.44Q55.07-14.89 55.88-14.89Q56.69-14.89 57.20-14.44Q57.71-13.99 57.71-13.29Q57.71-12.59 57.20-12.14Q56.69-11.69 55.88-11.69Q55.07-11.69 54.56-12.14Q54.05-12.59 54.05-13.29ZM64.04-2.34L64.04-2.34Q64.74-2.34 65.12-2.72Q65.50-3.10 65.49-3.77L65.49-3.77L68.57-3.77Q68.57-2.03 67.33-0.92Q66.08 0.20 64.12 0.20L64.12 0.20Q61.82 0.20 60.49-1.25Q59.16-2.70 59.16-5.25L59.16-5.25L59.16-5.39Q59.16-6.99 59.75-8.22Q60.34-9.44 61.46-10.10Q62.57-10.76 64.09-10.76L64.09-10.76Q66.15-10.76 67.36-9.62Q68.57-8.48 68.57-6.52L68.57-6.52L65.49-6.52Q65.49-7.34 65.09-7.78Q64.69-8.22 64.01-8.22L64.01-8.22Q62.73-8.22 62.52-6.59L62.52-6.59Q62.45-6.07 62.45-5.17L62.45-5.17Q62.45-3.57 62.83-2.96Q63.21-2.34 64.04-2.34ZM79.21 0L75.92 0Q75.74-0.32 75.61-0.95L75.61-0.95Q74.70 0.20 73.07 0.20L73.07 0.20Q71.57 0.20 70.53-0.71Q69.48-1.61 69.48-2.98L69.48-2.98Q69.48-4.70 70.75-5.58Q72.02-6.46 74.44-6.46L74.44-6.46L75.46-6.46L75.46-7.01Q75.46-8.47 74.20-8.47L74.20-8.47Q73.03-8.47 73.03-7.31L73.03-7.31L69.74-7.31Q69.74-8.85 71.04-9.80Q72.34-10.76 74.37-10.76Q76.39-10.76 77.56-9.78Q78.73-8.79 78.76-7.07L78.76-7.07L78.76-2.39Q78.78-0.94 79.21-0.17L79.21-0.17L79.21 0ZM73.86-2.15L73.86-2.15Q74.47-2.15 74.88-2.41Q75.28-2.68 75.46-3.01L75.46-3.01L75.46-4.70L74.50-4.70Q72.78-4.70 72.78-3.15L72.78-3.15Q72.78-2.71 73.09-2.43Q73.39-2.15 73.86-2.15ZM86.51-11.78L86.51-8.07L89.84-8.07L89.84-5.24L86.51-5.24L86.51-1.43L83.44-1.43L83.44-5.24L80.10-5.24L80.10-8.07L83.44-8.07L83.44-11.78L86.51-11.78Z"></path></g></g></svg>